Coordinates
version=1
nRows=8
nColumns=33
inDegrees=yes

Units are S.I. units (second, meters, Newtons, ...)
Angles are in degrees.

endheader
time	ground_thorax_rot_x	ground_thorax_rot_y	ground_thorax_rot_z	ground_thorax_tx	ground_thorax_ty	ground_thorax_tz	clav_prot_r	clav_elev_r	scapula_abduction_r	scapula_elevation_r	scapula_upward_rot_r	scapula_winging_r	shoulder_elv_r	plane_of_elev_r	axial_rot_r	elbow_flexion_r	pro_sup_r	wrist_flex_r	wrist_dev_r	clav_prot_l	clav_elev_l	scapula_abduction_l	scapula_elevation_l	scapula_upward_rot_l	scapula_winging_l	shoulder_elv_l	plane_of_elev_l	axial_rot_l	elbow_flexion_l	pro_sup_l	wrist_flex_l	wrist_dev_l
      5.80000000	      0.24968612	      5.98018904	     12.10425717	     -0.10774460	      1.03028188	      0.02755974	      5.79291116	      5.62786064	     25.93223943	      0.98914866	     27.25553286	    -12.63067479	     26.64472467	    -59.80030504	     56.07368791	     59.56870648	    -25.37477557	     18.97460429	    -24.99999983	     19.61304723	     -9.92140886	    -29.64331849	    -13.35790409	    -38.11041551	      6.80565681	     66.08916133	    -19.81212815	     -0.48510797	     58.16478140	      4.39854467	     25.63959891	     -7.52520698
      5.81000000	      0.23207341	      5.83069853	     12.03294599	     -0.10725636	      1.02966756	      0.02704287	      6.12768017	      5.27789515	     26.95646140	      0.57784426	     27.69362218	    -12.91058264	     26.02730817	    -58.12831798	     57.87127554	     56.66244738	    -29.84310609	     20.50535867	    -24.99999983	     19.80884318	    -10.07405351	    -29.79580059	    -12.82375690	    -37.26586613	      6.98223576	     65.57026694	    -18.79949388	     -0.48109356	     56.09373194	      3.73226244	     26.17336326	     -6.75596575
      5.82000000	      0.23076322	      5.66639332	     11.93512236	     -0.10670829	      1.02913761	      0.02640634	      6.43001376	      5.02280602	     28.05169812	      0.19749066	     28.32107413	    -13.23380790	     24.94242889	    -56.21780683	     60.35571966	     52.98777677	    -35.30651926	     23.31556816	    -24.99999983	     19.97461860	    -10.24487087	    -29.91008698	    -12.27778942	    -36.42927980	      7.12940910	     64.99366734	    -17.73387259	     -0.38892272	     53.87530825	      3.24907722	     26.52989760	     -6.11449563
      5.83000000	      0.21949463	      5.42485520	     11.79942116	     -0.10625213	      1.02872612	      0.02565230	      6.69215948	      4.96291805	     29.36114570	     -0.12073121	     29.33867177	    -13.66760772	     22.75718578	    -53.85428508	     63.99670414	     47.88261421	    -42.35576026	     27.66113164	    -24.99999983	     20.14156601	    -10.42111681	    -30.04054974	    -11.73547765	    -35.61235079	      7.27638594	     64.36624622	    -16.65401294	     -0.12625156	     51.54628866	      2.91767822	     26.76762799	     -5.60976389
      5.84000000	     -2.00692467	      4.00169888	     11.44119615	     -0.10702772	      1.02871139	      0.01320983	     13.88066000	    -14.02049004	     30.99216181	    -11.27830160	     13.06432886	     -7.26115650	    -14.19298196	    -66.63248280	    119.57432539	    -63.28938364	   -154.78157302	      1.58168007	     11.01149323	     19.34839349	     -7.59396361	    -28.49488790	    -12.69988972	    -32.21572872	      7.11409145	     62.02477124	    -16.04357031	     -0.46390440	     50.45689212	      3.23316942	     26.45167206	     -4.11541777
      5.85000000	     -2.68336983	      4.14108181	     11.22836647	     -0.10553407	      1.02725439	      0.01267015	     13.46530879	    -14.35595090	     30.82338817	    -11.86176990	     13.89697398	     -6.90439789	    -12.34201725	    -65.27646877	    121.80478140	    -60.50075897	   -154.21960524	      0.42980853	      9.02676978	     19.61814943	     -6.15315022	    -28.93376678	    -13.50910257	    -31.25503548	      7.59267897	     60.88397046	    -13.42658953	     -0.18821332	     47.45748342	      3.42292795	     26.41228373	     -3.46309868
      5.86000000	     -2.88450492	      4.39577659	     10.95796193	     -0.10472414	      1.02739319	      0.01261653	     13.75400381	    -15.06481442	     31.49811956	    -12.60571065	     14.28403904	     -6.73146383	    -10.84895751	    -64.24922242	    121.94962124	    -57.95754785	   -154.08736488	     -0.10190751	      8.90044963	     20.05266132	     -6.76761035	    -29.60906344	    -12.66826727	    -30.69947024	      8.00001951	     61.03600274	    -12.54904667	     -0.52641257	     45.12631748	      3.62943442	     26.35747509	     -3.13885098
      5.87000000	     -3.07054015	      4.51200874	     10.96787988	     -0.10399764	      1.02654821	      0.01228433	     13.57719896	    -15.15122111	     31.46679257	    -12.81992140	     14.69215712	     -6.61913434	     -8.09223196	    -62.97314866	    124.59395731	    -54.94398686	   -153.23596364	     -0.46726295	      8.67429490	     20.87109439	     -6.54005583	    -30.97549628	    -12.54941669	    -30.15575227	      8.86137206	     59.77908514	    -10.91616324	      0.23094742	     42.31860987	      3.44315008	     26.12217951	     -3.31429553
